<?xml version="1.0" encoding="UTF-8" standalone="no"?>
<svg
   xmlns:dc="http://purl.org/dc/elements/1.1/"
   xmlns:cc="http://creativecommons.org/ns#"
   xmlns:rdf="http://www.w3.org/1999/02/22-rdf-syntax-ns#"
   xmlns:svg="http://www.w3.org/2000/svg"
   xmlns="http://www.w3.org/2000/svg"
   width="1238"
   height="545"
   viewBox="0 0 327.55416 144.19792"
   version="1.1"
   id="svg10669">
  <defs
     id="defs10663">
    <marker
       orient="auto"
       refY="0"
       refX="0"
       id="Arrow1Mend"
       style="overflow:visible">
      <path
         id="path1262"
         d="M 0,0 5,-5 -12.5,0 5,5 Z"
         style="fill:#555753;fill-opacity:1;fill-rule:evenodd;stroke:#555753;stroke-width:1pt;stroke-opacity:1"
         transform="matrix(-0.4,0,0,-0.4,-4,0)" />
    </marker>
    <marker
       orient="auto"
       refY="0"
       refX="0"
       id="Arrow1Mend-3"
       style="overflow:visible">
      <path
         id="path1262-9"
         d="M 0,0 5,-5 -12.5,0 5,5 Z"
         style="fill:#555753;fill-opacity:1;fill-rule:evenodd;stroke:#555753;stroke-width:1pt;stroke-opacity:1"
         transform="matrix(-0.4,0,0,-0.4,-4,0)" />
    </marker>
    <marker
       orient="auto"
       refY="0"
       refX="0"
       id="Arrow1Mend-3-2"
       style="overflow:visible">
      <path
         id="path1262-9-4"
         d="M 0,0 5,-5 -12.5,0 5,5 Z"
         style="fill:#555753;fill-opacity:1;fill-rule:evenodd;stroke:#555753;stroke-width:1pt;stroke-opacity:1"
         transform="matrix(-0.4,0,0,-0.4,-4,0)" />
    </marker>
    <marker
       orient="auto"
       refY="0"
       refX="0"
       id="Arrow1Mend-3-3"
       style="overflow:visible">
      <path
         id="path1262-9-8"
         d="M 0,0 5,-5 -12.5,0 5,5 Z"
         style="fill:#555753;fill-opacity:1;fill-rule:evenodd;stroke:#555753;stroke-width:1pt;stroke-opacity:1"
         transform="matrix(-0.4,0,0,-0.4,-4,0)" />
    </marker>
    <marker
       orient="auto"
       refY="0"
       refX="0"
       id="Arrow1Mend-3-35"
       style="overflow:visible">
      <path
         id="path1262-9-9"
         d="M 0,0 5,-5 -12.5,0 5,5 Z"
         style="fill:#555753;fill-opacity:1;fill-rule:evenodd;stroke:#555753;stroke-width:1pt;stroke-opacity:1"
         transform="matrix(-0.4,0,0,-0.4,-4,0)" />
    </marker>
    <marker
       orient="auto"
       refY="0"
       refX="0"
       id="Arrow1Mend-3-5"
       style="overflow:visible">
      <path
         id="path1262-9-6"
         d="M 0,0 5,-5 -12.5,0 5,5 Z"
         style="fill:#555753;fill-opacity:1;fill-rule:evenodd;stroke:#555753;stroke-width:1pt;stroke-opacity:1"
         transform="matrix(-0.4,0,0,-0.4,-4,0)" />
    </marker>
  </defs>
  <metadata
     id="metadata10666">
    <rdf:RDF>
      <cc:Work
         rdf:about="">
        <dc:format>image/svg+xml</dc:format>
        <dc:type
           rdf:resource="http://purl.org/dc/dcmitype/StillImage" />
        <dc:title></dc:title>
      </cc:Work>
    </rdf:RDF>
  </metadata>
  <g
     id="layer1"
     transform="translate(0,-106.49996)">
    <path
       d="m 140.27504,151.41087 c 0,2.62268 -2.12791,4.74795 -4.74894,4.74795 -2.62268,0 -4.74927,-2.12527 -4.74927,-4.74795 0,-2.62301 2.12659,-4.74894 4.74927,-4.74894 2.62103,0 4.74894,2.12593 4.74894,4.74894"
       style="fill:#cc0000;fill-opacity:1;fill-rule:nonzero;stroke:none;stroke-width:0.330729"
       id="path4479" />
    <path
       id="rect4781"
       d="m 136.36576,148.16136 c -0.0629,-1.1e-4 -0.12638,0.0242 -0.17486,0.0716 l -0.93892,0.92014 c -0.0716,0.0713 -0.0947,0.17967 -0.054,0.27346 l 0.52345,1.20651 c 0.0404,0.0924 0.13113,0.14671 0.2265,0.14671 0.0322,0 0.0652,-0.007 0.0974,-0.0211 0.12537,-0.0548 0.18199,-0.19923 0.12792,-0.32392 l -0.35209,-0.80864 c 0.97348,0.14422 1.72644,0.97798 1.72644,1.99051 0,1.11468 -0.90752,2.02219 -2.0222,2.02219 -1.11471,0 -2.02102,-0.90751 -2.02102,-2.02219 0,-0.13525 -0.11042,-0.2453 -0.24646,-0.2453 -0.13597,0 -0.24647,0.11017 -0.24647,0.2453 0,1.38585 1.1281,2.51395 2.51395,2.51395 l 9.1e-4,-0.003 c 1.38585,-1e-5 2.51396,-1.12693 2.51396,-2.51278 0,-1.23711 -0.90159,-2.26291 -2.08088,-2.46936 l 0.57626,-0.56569 c 0.0961,-0.0946 0.0977,-0.25043 0.003,-0.3474 -0.0477,-0.0469 -0.10963,-0.0715 -0.17253,-0.0716 z"
       style="fill:#ffffff;fill-opacity:1;stroke:none;stroke-width:2.27143;stroke-miterlimit:4;stroke-dasharray:none" />
    <rect
       y="186.30957"
       x="0"
       height="13.229167"
       width="52.916668"
       id="rect11478"
       style="fill:#4e9a06;fill-opacity:1;stroke-width:0.264583" />
    <rect
       y="186.30957"
       x="13.229166"
       height="13.229172"
       width="39.6875"
       id="rect866"
       style="fill:#ffffff;fill-opacity:0.00392157;stroke-width:0.264583" />
    <rect
       y="186.30957"
       x="0"
       height="13.229167"
       width="13.229167"
       id="rect59"
       style="fill:#ffffff;fill-opacity:0.117647;stroke-width:0.264583" />
    <path
       id="path3627"
       style="fill:#ededee;fill-opacity:1;fill-rule:nonzero;stroke:none;stroke-width:0.330729"
       d="m 11.363689,192.92482 c 0,2.62235 -2.1279119,4.74795 -4.7489399,4.74795 -2.6226829,0 -4.7492709,-2.1256 -4.7492709,-4.74795 0,-2.62301 2.126588,-4.74927 4.7492709,-4.74927 2.621028,0 4.7489399,2.12626 4.7489399,4.74927" />
    <path
       id="path5907"
       style="fill:#020000;fill-opacity:1;fill-rule:nonzero;stroke:none;stroke-width:0.330729"
       d="M 7.8224721,194.32946 H 7.5281231 L 7.2995891,193.964 c -0.218942,0.18157 -0.482864,0.29634 -0.773575,0.29634 -0.269544,0 -0.518253,-0.0992 -0.731242,-0.25896 l -0.227211,0.32808 h -0.297326 c -0.734218,0 -1.1724349,0.38728 -1.1724349,1.03651 v 0.253 c 0,0.0509 0.04134,0.0923 0.09227,0.0923 h 4.7899509 c 0.05093,0 0.09227,-0.0413 0.09227,-0.0923 v -0.253 c 0,-0.62971 -0.490471,-1.03651 -1.249826,-1.03651 m -2.80326,-1.95726 v -0.4607 c -0.0089,-0.11543 0.01951,-0.20704 0.08533,-0.26525 0.03175,-0.0281 0.06681,-0.0433 0.09889,-0.0516 v -0.37405 c 0,-0.44649 0.316838,-0.78317 0.736864,-0.78317 0.0076,0 0.01554,0 0.02315,0.003 0.162389,-0.2335 0.672704,-0.39258 1.133079,-0.24739 0.251354,0.0794 0.674357,0.31849 0.685932,1.02592 v 0.37869 c 0.04994,0.0102 0.0893,0.0304 0.119063,0.0602 0.06582,0.0662 0.06548,0.1571 0.06515,0.23746 v 0.47692 c 0,0.15048 -0.08831,0.27053 -0.215967,0.30923 -0.03903,0.66212 -0.560255,1.39468 -1.22469,1.39468 -0.667411,0 -1.210138,-0.74348 -1.25214,-1.39369 -0.143206,-0.039 -0.254662,-0.16735 -0.254662,-0.31022" />
    <text
       id="text57"
       y="195.98961"
       x="21.396105"
       style="font-style:normal;font-weight:normal;font-size:10.5833px;line-height:1.25;font-family:sans-serif;letter-spacing:0px;word-spacing:0px;fill:#ededed;fill-opacity:1;stroke:none;stroke-width:0.264583px;stroke-linecap:butt;stroke-linejoin:miter;stroke-opacity:1"
       xml:space="preserve"><tspan
         style="font-style:normal;font-variant:normal;font-weight:normal;font-stretch:normal;font-size:8.46667px;font-family:'Open Sans';-inkscape-font-specification:'Open Sans';fill:#ededed;stroke-width:0.264583px"
         y="195.98961"
         x="21.396105"
         id="tspan55">writer</tspan></text>
    <rect
       y="229.00719"
       x="21.367949"
       height="21.166668"
       width="52.916668"
       id="rect11478-6"
       style="fill:#4e9a06;fill-opacity:1;stroke-width:0.334674" />
    <rect
       y="229.00719"
       x="34.597111"
       height="21.166668"
       width="39.6875"
       id="rect866-7"
       style="fill:#669900;fill-opacity:0.00392157;stroke-width:0.334674" />
    <rect
       y="229.00719"
       x="21.367949"
       height="21.166668"
       width="13.229167"
       id="rect59-5"
       style="fill:#ffffff;fill-opacity:0.117647;stroke-width:0.334674" />
    <path
       id="path3655-9"
       style="fill:#ededee;fill-opacity:1;fill-rule:nonzero;stroke:none;stroke-width:0.330729"
       d="m 32.731637,239.59117 c 0,2.62235 -2.12791,4.74795 -4.74894,4.74795 -2.62268,0 -4.74927,-2.1256 -4.74927,-4.74795 0,-2.62301 2.12658,-4.74927 4.74927,-4.74927 2.62103,0 4.74894,2.12626 4.74894,4.74927" />
    <path
       id="path5719-1"
       style="fill:#020000;fill-opacity:1;fill-rule:nonzero;stroke:none;stroke-width:0.330729"
       d="m 27.993507,240.35188 c 1.32226,0 1.79256,-0.73488 1.90533,-0.96011 0.0106,-0.0215 0.01,-0.047 -0.003,-0.0675 -0.004,-0.007 -0.396221,-0.66443 -0.452441,-0.90123 -0.2153,-0.91248 -0.743809,-1.43603 -1.450249,-1.43603 -0.706101,0 -1.234611,0.52355 -1.44991,1.43603 -0.0559,0.23713 -0.4488,0.89462 -0.452771,0.90123 -0.0122,0.0205 -0.0132,0.046 -0.003,0.0675 0.11278,0.22523 0.583081,0.96011 1.90533,0.96011 m 2.37332,1.77205 c 0,0.0387 -0.0314,0.0701 -0.0704,0.0701 h -4.605729 c -0.039,0 -0.0704,-0.0314 -0.0704,-0.0701 0,-0.67965 0.9697,-1.19526 1.63149,-1.22072 l 0.13494,-0.40515 c 0.19215,0.037 0.39389,0.0599 0.60688,0.0599 0.21299,0 0.41474,-0.0228 0.60689,-0.0599 l 0.13494,0.40515 c 0.66179,0.0255 1.63149,0.54107 1.63149,1.22072" />
    <text
       xml:space="preserve"
       style="font-style:normal;font-weight:normal;font-size:10.5833px;line-height:1.25;font-family:sans-serif;letter-spacing:0px;word-spacing:0px;fill:#ededed;fill-opacity:1;stroke:none;stroke-width:0.264583px;stroke-linecap:butt;stroke-linejoin:miter;stroke-opacity:1"
       x="40.000393"
       y="237.64059"
       id="text57-6"><tspan
         id="tspan55-2"
         x="40.000393"
         y="237.64059"
         style="font-style:normal;font-variant:normal;font-weight:normal;font-stretch:normal;font-size:8.46667px;font-family:'Open Sans';-inkscape-font-specification:'Open Sans';fill:#ededed;stroke-width:0.264583px">release</tspan><tspan
         x="40.000393"
         y="250.86972"
         id="tspan953" /></text>
    <text
       xml:space="preserve"
       style="font-style:normal;font-weight:normal;font-size:10.5833px;line-height:1.25;font-family:sans-serif;letter-spacing:0px;word-spacing:0px;fill:#ededed;fill-opacity:1;stroke:none;stroke-width:0.264583px;stroke-linecap:butt;stroke-linejoin:miter;stroke-opacity:1"
       x="36.823322"
       y="245.93915"
       id="text57-6-2"><tspan
         x="36.823322"
         y="245.93915"
         style="font-style:normal;font-variant:normal;font-weight:normal;font-stretch:normal;font-size:8.46667px;font-family:'Open Sans';-inkscape-font-specification:'Open Sans';fill:#ededed;stroke-width:0.264583px"
         id="tspan953-0">engineer</tspan></text>
    <rect
       y="115.13667"
       x="98.651787"
       height="13.229167"
       width="52.916668"
       id="rect11478-3"
       style="fill:#f57900;fill-opacity:1;stroke-width:0.264583" />
    <rect
       y="115.13667"
       x="111.88096"
       height="13.229172"
       width="39.6875"
       id="rect866-6"
       style="fill:#ffffff;fill-opacity:0.00392157;stroke-width:0.264583" />
    <rect
       y="115.13667"
       x="98.651787"
       height="13.229167"
       width="13.229167"
       id="rect59-0"
       style="fill:#ffffff;fill-opacity:0.117647;stroke-width:0.264583" />
    <text
       id="text57-1"
       y="124.28754"
       x="115.70294"
       style="font-style:normal;font-weight:normal;font-size:10.5833px;line-height:1.25;font-family:sans-serif;letter-spacing:0px;word-spacing:0px;fill:#ededed;fill-opacity:1;stroke:none;stroke-width:0.264583px;stroke-linecap:butt;stroke-linejoin:miter;stroke-opacity:1"
       xml:space="preserve"><tspan
         style="font-style:normal;font-variant:normal;font-weight:normal;font-stretch:normal;font-size:8.46667px;font-family:'Open Sans';-inkscape-font-specification:'Open Sans';fill:#ededed;stroke-width:0.264583px"
         y="124.28754"
         x="115.70294"
         id="tspan55-8">Git repo</tspan></text>
    <path
       id="path758"
       style="fill:#ededee;fill-opacity:1;fill-rule:nonzero;stroke:none;stroke-width:0.352778"
       d="m 110.33208,121.75178 c 0,2.79753 -2.26976,5.06448 -5.06553,5.06448 -2.79752,0 -5.06588,-2.26695 -5.06588,-5.06448 0,-2.79788 2.26836,-5.06554 5.06588,-5.06554 2.79577,0 5.06553,2.26766 5.06553,5.06554" />
    <path
       id="path2542"
       style="fill:#020000;fill-opacity:1;fill-rule:nonzero;stroke:none;stroke-width:0.352778"
       d="m 107.40004,123.82664 c -0.0882,0 -0.1598,-0.0716 -0.1598,-0.15981 0,-0.0882 0.0716,-0.1598 0.1598,-0.1598 0.0882,0 0.15981,0.0716 0.15981,0.1598 0,0.0882 -0.0716,0.15981 -0.15981,0.15981 m 0,-0.54927 c -0.21449,0 -0.3891,0.17462 -0.3891,0.38946 0,0.21449 0.17462,0.38912 0.3891,0.38912 0.2145,0 0.38947,-0.17463 0.38947,-0.38912 0,-0.21484 -0.17498,-0.38946 -0.38947,-0.38946" />
    <path
       id="path2546"
       style="fill:#020000;fill-opacity:1;fill-rule:nonzero;stroke:none;stroke-width:0.352778"
       d="m 108.28976,123.85638 c 0,0.38735 -0.31504,0.70238 -0.70239,0.70238 h -4.64185 c -0.38735,0 -0.70238,-0.31503 -0.70238,-0.70238 v -0.32385 c 0,-0.38735 0.31503,-0.70238 0.70238,-0.70238 h 4.64185 c 0.38735,0 0.70239,0.31503 0.70239,0.70238 z m -4.00757,-3.40924 c 0.072,0 0.14324,0.0113 0.21344,0.0328 0.0942,-0.35454 0.41274,-0.60818 0.78916,-0.60818 0.32385,0 0.61137,0.18944 0.74365,0.48048 0.50484,-0.11642 0.96768,0.2861 0.96804,0.78352 0,0.41381 -0.32456,0.76376 -0.73907,0.79692 l -2.06728,-0.004 c -0.37889,-0.0536 -0.6537,-0.36971 -0.6537,-0.73625 0,-0.41099 0.33443,-0.74577 0.74577,-0.74577 m 4.18042,2.82786 c 0,0 0.001,-0.004 7.1e-4,-0.004 l -0.61418,-3.66394 c -0.0663,-0.5006 -0.49742,-0.87842 -1.00224,-0.87842 h -3.27521 c -0.50377,0 -0.93485,0.37677 -1.00224,0.87595 l -0.50129,3.66959 c 0,0 0.001,0.004 0.001,0.004 -0.0236,0.0811 -0.0406,0.1651 -0.0406,0.254 v 0.32385 c 0,0.50553 0.41133,0.91652 0.91687,0.91652 h 4.64185 c 0.50553,0 0.91652,-0.41099 0.91652,-0.91652 v -0.32385 c 0,-0.0903 -0.0169,-0.17533 -0.0413,-0.25753" />
    <rect
       y="174.44611"
       x="128.98627"
       height="21.166668"
       width="74.083336"
       id="rect11478-6-9"
       style="fill:#3465a4;fill-opacity:1;stroke-width:0.395992" />
    <rect
       y="174.44611"
       x="142.21542"
       height="21.166668"
       width="60.854168"
       id="rect866-7-7"
       style="fill:#ffffff;fill-opacity:0.00392157;stroke-width:0.41442" />
    <rect
       y="174.44611"
       x="128.98627"
       height="21.166668"
       width="13.229167"
       id="rect59-5-3"
       style="fill:#ffffff;fill-opacity:0.117647;stroke-width:0.334674" />
    <text
       xml:space="preserve"
       style="font-style:normal;font-weight:normal;font-size:10.5833px;line-height:1.25;font-family:sans-serif;letter-spacing:0px;word-spacing:0px;fill:#ededed;fill-opacity:1;stroke:none;stroke-width:0.264583px;stroke-linecap:butt;stroke-linejoin:miter;stroke-opacity:1"
       x="147.68898"
       y="188.90027"
       id="text57-6-3"><tspan
         id="tspan55-2-1"
         x="147.68898"
         y="188.90027"
         style="font-style:normal;font-variant:normal;font-weight:normal;font-stretch:normal;font-size:8.46667px;font-family:'Open Sans';-inkscape-font-specification:'Open Sans';fill:#ededed;stroke-width:0.264583px">build server</tspan><tspan
         x="147.68898"
         y="202.12939"
         id="tspan953-9" /></text>
    <path
       id="path438"
       style="fill:#ededee;fill-opacity:1;fill-rule:nonzero;stroke:none;stroke-width:0.352778"
       d="m 140.66658,185.02997 c 0,2.79753 -2.26977,5.06448 -5.06554,5.06448 -2.79753,0 -5.06589,-2.26695 -5.06589,-5.06448 0,-2.79788 2.26836,-5.06553 5.06589,-5.06553 2.79577,0 5.06554,2.26765 5.06554,5.06553" />
    <path
       id="path2052"
       style="fill:#020000;fill-opacity:1;fill-rule:nonzero;stroke:none;stroke-width:0.352778"
       d="m 138.61885,183.28662 h -0.77189 c -0.0635,0 -0.11535,0.0519 -0.11535,0.11571 0,0.0635 0.0519,0.11535 0.11535,0.11535 h 0.27059 v 3.13655 c 0,0.0639 0.0519,0.11571 0.11536,0.11571 0.0639,0 0.11571,-0.0519 0.11571,-0.11571 v -3.13655 h 0.27023 c 0.0639,0 0.11571,-0.0519 0.11571,-0.11535 0,-0.0639 -0.0519,-0.11571 -0.11571,-0.11571 m -1.23755,0.6043 h -0.77153 c -0.0639,0 -0.11571,0.0519 -0.11571,0.11571 0,0.0639 0.0519,0.11572 0.11571,0.11572 H 136.88 v 3.13654 c 0,0.0635 0.0519,0.11536 0.11536,0.11536 0.0638,0 0.11571,-0.0519 0.11571,-0.11536 v -3.13654 h 0.27023 c 0.0639,0 0.11571,-0.0519 0.11571,-0.11572 0,-0.0639 -0.0519,-0.11571 -0.11571,-0.11571 m -0.63324,-1.09749 -0.62794,0.0169 c -0.0529,0.0109 -0.11324,-0.0448 -0.11818,-0.10584 -0.006,-0.0254 -0.0593,-0.078 -0.21908,-0.078 -0.39864,0 -0.4699,0.42615 -0.47272,0.44414 -0.006,0.0363 -0.0279,0.0667 -0.0582,0.0836 l 0.007,1.26013 h 0.0988 c 0.06,0 0.11007,0.0459 0.11501,0.10583 0,3.4e-4 0.0423,0.496 0.0938,1.01388 0.019,0.18944 0.0356,0.75107 0.0515,1.2947 0.013,0.45155 0.0296,1.01423 0.0427,1.08197 0.0596,0.29703 -0.12171,0.58737 -0.4124,0.66075 -0.127,0.0321 -0.25541,0.048 -0.38453,0.048 -0.14817,0 -0.29739,-0.0208 -0.44697,-0.0632 -0.27764,-0.0783 -0.45085,-0.36583 -0.39441,-0.6544 0.0127,-0.067 0.0279,-0.59902 0.0416,-1.06857 0.0155,-0.54504 0.0317,-1.10878 0.0511,-1.29928 0.0519,-0.51823 0.0942,-1.01388 0.0942,-1.01388 0.005,-0.06 0.055,-0.10583 0.11501,-0.10583 h 0.097 v -1.24813 c -0.0459,-0.0102 -0.0822,-0.0476 -0.0896,-0.0956 l -0.0864,-0.57256 c -0.72637,0.0332 -1.12325,0.42968 -1.29681,0.60325 -0.0279,0.0282 -0.0508,0.0504 -0.0681,0.0656 -0.15664,0.13476 -0.26564,0.11078 -0.3168,0.0843 -0.0681,-0.0353 -0.10407,-0.11007 -0.0956,-0.20003 0.0145,-0.17427 0.80469,-1.15605 1.35538,-1.38924 0.5214,-0.22154 1.31198,-0.26387 1.44921,-0.18838 0.031,0.0169 0.0614,0.0565 0.0674,0.0914 0.0127,0.0755 0.12523,0.14887 0.30092,0.1965 0.24729,0.0674 0.4318,-0.13864 0.43956,-0.14746 0.0236,-0.0272 0.0596,-0.0409 0.0949,-0.0395 l 0.61771,0.0427 c 0.0547,0.004 0.0991,0.0452 0.10654,0.0998 0.084,0.61454 -0.0406,0.98319 -0.0459,0.99871 -0.0159,0.0452 -0.0582,0.0762 -0.10619,0.0776" />
    <path
       style="display:inline;fill:#555753;fill-rule:evenodd;stroke:#555753;stroke-width:1.00013;stroke-linecap:butt;stroke-linejoin:miter;stroke-miterlimit:4;stroke-dasharray:none;stroke-opacity:1;marker-end:url(#Arrow1Mend)"
       d="m 33.855207,186.30958 64.79658,-57.94375"
       id="path1251" />
    <path
       d="m 71.887132,156.86771 c 0,2.79753 -2.269772,5.06448 -5.065536,5.06448 -2.797528,0 -5.065889,-2.26695 -5.065889,-5.06448 0,-2.79788 2.268361,-5.06554 5.065889,-5.06554 2.795764,0 5.065536,2.26766 5.065536,5.06554"
       style="fill:#cc0000;fill-opacity:1;fill-rule:nonzero;stroke:none;stroke-width:0.352778"
       id="path1358" />
    <path
       id="path2092"
       style="fill:#ffffff;fill-opacity:1;fill-rule:nonzero;stroke:none;stroke-width:0.352777"
       d="m 63.246565,155.64035 c -0.0441,0 -0.08499,0.0248 -0.104386,0.0651 -0.01905,0.0399 -0.01357,0.0872 0.01395,0.12144 l 0.809252,1.02112 -0.841293,1.05885 c -0.02752,0.0346 -0.03283,0.0821 -0.01344,0.12196 0.01905,0.0402 0.05942,0.0651 0.10387,0.0651 h 0.127125 c 0.03528,0 0.06856,-0.0158 0.09043,-0.0434 l 0.744657,-0.94619 0.744657,0.94568 c 0.02187,0.0279 0.05516,0.0439 0.09043,0.0439 h 0.12764 c 0.0441,0 0.08447,-0.0249 0.103871,-0.0651 0.01905,-0.0395 0.01392,-0.0873 -0.01395,-0.12196 l -0.838708,-1.06195 0.807186,-1.01802 c 0.02752,-0.0342 0.033,-0.0816 0.01395,-0.12144 -0.0194,-0.0402 -0.06029,-0.0651 -0.104386,-0.0651 h -0.127124 c -0.03528,0 -0.06908,0.0159 -0.09095,0.0434 l -0.712618,0.90434 -0.712618,-0.90434 c -0.02187,-0.0275 -0.05568,-0.0434 -0.09095,-0.0434 z m 2.676324,0 c -0.06385,0 -0.115755,0.0514 -0.115755,0.11524 v 2.22312 c 0,0.0639 0.0519,0.11524 0.115755,0.11524 h 0.104386 c 0.06385,0 0.115755,-0.0514 0.115755,-0.11524 v -1.66811 l 0.720368,1.03249 c 0.04304,0.0621 0.152815,0.0621 0.195855,0 l 0.720371,-1.03249 v 1.66811 c 0,0.0639 0.05226,0.11524 0.115755,0.11524 h 0.107487 c 0.06385,0 0.115755,-0.0514 0.115755,-0.11524 v -2.22312 c 0,-0.0639 -0.05191,-0.11524 -0.115755,-0.11524 h -0.101288 c -0.0381,0 -0.07357,0.0186 -0.09508,0.0496 l -0.841809,1.21595 -0.84491,-1.21595 c -0.02187,-0.0314 -0.05733,-0.0496 -0.09509,-0.0496 z m 3.057176,0 c -0.06385,0 -0.115756,0.0514 -0.115756,0.11524 v 2.22312 c 0,0.0639 0.05191,0.11576 0.115756,0.11576 h 1.44849 c 0.06385,0 0.115755,-0.052 0.115755,-0.11576 v -0.0987 c 0,-0.0639 -0.0519,-0.11524 -0.115755,-0.11524 h -1.22473 v -2.00918 c 0,-0.0639 -0.05191,-0.11524 -0.115755,-0.11524 z" />
    <text
       xml:space="preserve"
       style="font-style:normal;font-weight:normal;font-size:10.5833px;line-height:1.25;font-family:sans-serif;letter-spacing:0px;word-spacing:0px;fill:#000000;fill-opacity:1;stroke:none;stroke-width:0.264583px;stroke-linecap:butt;stroke-linejoin:miter;stroke-opacity:1"
       x="14.947718"
       y="150.74312"
       id="text1695"><tspan
         id="tspan1693"
         x="14.947718"
         y="150.74312"
         style="font-style:italic;font-variant:normal;font-weight:normal;font-stretch:normal;font-size:6.35px;font-family:'Open Sans';-inkscape-font-specification:'Open Sans Italic';stroke-width:0.264583px">1. uploads sources</tspan></text>
    <text
       xml:space="preserve"
       style="font-style:normal;font-weight:normal;font-size:10.5833px;line-height:1.25;font-family:sans-serif;letter-spacing:0px;word-spacing:0px;fill:#000000;fill-opacity:1;stroke:none;stroke-width:0.264583px;stroke-linecap:butt;stroke-linejoin:miter;stroke-opacity:1"
       x="57.939449"
       y="206.93173"
       id="text1695-3"><tspan
         id="tspan1693-4"
         x="57.939449"
         y="206.93173"
         style="font-style:italic;font-variant:normal;font-weight:normal;font-stretch:normal;font-size:6.35px;font-family:'Open Sans';-inkscape-font-specification:'Open Sans Italic';stroke-width:0.264583px">2. triggers API</tspan></text>
    <path
       style="display:inline;fill:#555753;fill-rule:evenodd;stroke:#555753;stroke-width:1.00013;stroke-linecap:butt;stroke-linejoin:miter;stroke-miterlimit:4;stroke-dasharray:none;stroke-opacity:1;marker-end:url(#Arrow1Mend-3-2)"
       d="M 142.21545,174.44611 111.88096,128.36583"
       id="path1251-0-5" />
    <path
       style="display:inline;fill:#555753;fill-rule:evenodd;stroke:#555753;stroke-width:1.00013;stroke-linecap:butt;stroke-linejoin:miter;stroke-miterlimit:4;stroke-dasharray:none;stroke-opacity:1;marker-end:url(#Arrow1Mend-3-3)"
       d="m 129.38734,128.36583 29.79706,46.08028"
       id="path1251-0-1" />
    <text
       xml:space="preserve"
       style="font-style:normal;font-weight:normal;font-size:10.5833px;line-height:1.25;font-family:sans-serif;letter-spacing:0px;word-spacing:0px;fill:#000000;fill-opacity:1;stroke:none;stroke-width:0.264583px;stroke-linecap:butt;stroke-linejoin:miter;stroke-opacity:1"
       x="144.70474"
       y="148.58482"
       id="text1695-3-1"><tspan
         id="tspan1693-4-3"
         x="144.70474"
         y="148.58482"
         style="font-style:italic;font-variant:normal;font-weight:normal;font-stretch:normal;font-size:6.35px;font-family:'Open Sans';-inkscape-font-specification:'Open Sans Italic';stroke-width:0.264583px">4. syncs sources</tspan></text>
    <text
       xml:space="preserve"
       style="font-style:normal;font-weight:normal;font-size:10.5833px;line-height:1.25;font-family:sans-serif;letter-spacing:0px;word-spacing:0px;fill:#000000;fill-opacity:1;stroke:none;stroke-width:0.264583px;stroke-linecap:butt;stroke-linejoin:miter;stroke-opacity:1"
       x="84.021233"
       y="164.2883"
       id="text1695-3-1-1"><tspan
         id="tspan1693-4-3-5"
         x="84.021233"
         y="164.2883"
         style="font-style:italic;font-variant:normal;font-weight:normal;font-stretch:normal;font-size:6.35px;font-family:'Open Sans';-inkscape-font-specification:'Open Sans Italic';stroke-width:0.264583px">3. checks sources</tspan></text>
    <rect
       style="fill:#729fcf;fill-opacity:1;stroke-width:0.560017"
       id="rect11478-6-9-1"
       width="74.083336"
       height="42.333336"
       x="128.98627"
       y="195.61275" />
    <rect
       style="fill:#ffffff;fill-opacity:0.00392157;stroke-width:0.586078"
       id="rect866-7-7-3"
       width="60.854168"
       height="42.333336"
       x="142.21542"
       y="195.61278" />
    <rect
       style="fill:#ffffff;fill-opacity:0.117647;stroke-width:0.473301"
       id="rect59-5-3-3"
       width="13.229167"
       height="42.333336"
       x="128.98627"
       y="195.61278" />
    <path
       d="m 140.66657,209.86289 c 0,2.79753 -2.26977,5.06448 -5.06554,5.06448 -2.79753,0 -5.06589,-2.26695 -5.06589,-5.06448 0,-2.79788 2.26836,-5.06554 5.06589,-5.06554 2.79577,0 5.06554,2.26766 5.06554,5.06554"
       style="fill:#ededee;fill-opacity:1;fill-rule:nonzero;stroke:none;stroke-width:0.352778"
       id="path574" />
    <path
       d="m 136.87601,208.6675 h 1.81539 c 0.0635,0 0.11536,-0.0515 0.11536,-0.11536 v -1.28834 c 0,-0.0635 -0.0519,-0.11536 -0.11536,-0.11536 h -1.81539 c -0.0639,0 -0.11571,0.0519 -0.11571,0.11536 v 0.53481 l -1.32962,-0.001 v -0.65511 c 0,-0.0639 -0.0519,-0.11536 -0.11572,-0.11536 h -2.80458 c -0.0635,0 -0.11536,0.0515 -0.11536,0.11536 v 1.28799 c 0,0.0639 0.0519,0.11536 0.11536,0.11536 h 2.80458 c 0.0639,0 0.11572,-0.0515 0.11572,-0.11536 v -0.40181 l 0.41133,3.4e-4 0.005,3.99874 c 3.5e-4,0.0325 0.0134,0.0614 0.0346,0.0822 0.0212,0.0215 0.0497,0.0353 0.0825,0.0353 l 0.79622,0.001 v 0.53481 c 0,0.0639 0.0519,0.11536 0.11572,0.11536 h 1.81539 c 0.0635,0 0.11536,-0.0515 0.11536,-0.11536 v -1.28763 c 0,-0.0639 -0.0519,-0.11572 -0.11536,-0.11572 h -1.8154 c -0.0639,0 -0.11571,0.0519 -0.11571,0.11572 v 0.52211 l -0.68227,-0.001 -0.002,-1.8214 0.68439,0.001 v 0.52247 c 0,0.0639 0.0519,0.11571 0.11571,0.11571 h 1.8154 c 0.0635,0 0.11536,-0.0519 0.11536,-0.11571 v -1.28799 c 0,-0.0639 -0.0519,-0.11536 -0.11536,-0.11536 h -1.8154 c -0.0639,0 -0.11571,0.0515 -0.11571,0.11536 v 0.53445 l -0.68474,-0.001 -0.002,-1.83303 0.68721,7.1e-4 v 0.52282 c 0,0.0639 0.0519,0.11536 0.11571,0.11536"
       style="fill:#020000;fill-opacity:1;fill-rule:nonzero;stroke:none;stroke-width:0.352778"
       id="path2462" />
    <path
       id="path4295"
       style="fill:#ededee;fill-opacity:1;fill-rule:nonzero;stroke:none;stroke-width:0.330729"
       d="m 140.34996,221.02734 c 0,2.62268 -2.12791,4.74795 -4.74894,4.74795 -2.62268,0 -4.74927,-2.12527 -4.74927,-4.74795 0,-2.62301 2.12659,-4.74894 4.74927,-4.74894 2.62103,0 4.74894,2.12593 4.74894,4.74894" />
    <path
       d="m 134.8548,219.32733 h -1.5035 l 1.5035,-1.48564 z m 4.0974,2.61077 c 0,0.0529 -0.043,0.11576 -0.0959,0.11576 h -0.44946 c -0.0529,0 -0.0959,-0.0427 -0.0959,-0.0959 v -0.69586 c 0,-0.0529 0.043,-0.0959 0.0959,-0.0959 h 0.0221 c 0.0529,0 0.0959,0.043 0.0959,0.0959 v 0.5801 h 0.33139 c 0.0529,0 0.0959,0.043 0.0959,0.0959 m -0.82319,-0.67601 v 0.69585 c 0,0.0532 -0.043,0.0959 -0.0959,0.0959 -0.0529,0 -0.11774,-0.0427 -0.11774,-0.0959 v -0.35553 l -0.127,0.18124 c -0.0357,0.0509 -0.12204,0.0513 -0.15775,-3.2e-4 l -0.12668,-0.18058 v 0.35521 c 0,0.0532 -0.043,0.0959 -0.0959,0.0959 -0.0532,0 -0.11806,-0.0427 -0.11806,-0.0959 v -0.69585 c 0,-0.0529 0.043,-0.0959 0.0959,-0.0959 h 0.0212 c 0.0311,0 0.0605,0.0152 0.0784,0.0407 l 0.22457,0.31982 0.22489,-0.31982 c 0.048,-0.0691 0.19414,-0.0291 0.19414,0.0552 m -0.94489,0 c 0,0.0529 -0.043,0.11575 -0.0959,0.11575 h -0.15544 v 0.5801 c 0,0.0532 -0.043,0.0959 -0.0959,0.0959 -0.0532,0 -0.11774,-0.0427 -0.11774,-0.0959 v -0.5801 h -0.15577 c -0.0529,0 -0.0959,-0.0427 -0.0959,-0.0959 0,-0.0529 0.043,-0.11576 0.0959,-0.11576 h 0.52487 c 0.0529,0 0.0959,0.043 0.0959,0.0959 m -0.82219,0 v 0.69585 c 0,0.0532 -0.043,0.0959 -0.0962,0.0959 -0.0529,0 -0.1174,-0.0427 -0.1174,-0.0959 v -0.24508 h -0.30527 v 0.24507 c 0,0.0532 -0.043,0.0959 -0.0959,0.0959 -0.0533,0 -0.11807,-0.0427 -0.11807,-0.0959 v -0.69586 c 0,-0.0529 0.043,-0.0959 0.0959,-0.0959 h 0.0222 c 0.0529,0 0.0959,0.043 0.0959,0.0959 v 0.23912 h 0.30526 v -0.23912 c 0,-0.0529 0.0427,-0.0959 0.0959,-0.0959 0.0529,0 0.11774,0.043 0.11774,0.0959 m 2.81583,0.9912 c 0,0.0599 -0.0486,0.10848 -0.10848,0.10848 h -3.61256 c -0.0599,0 -0.10848,-0.0486 -0.10848,-0.10848 v -1.30043 c 0,-0.0595 0.0486,-0.10848 0.10848,-0.10848 h 3.61256 c 0.0599,0 0.10848,0.049 0.10848,0.10848 z m -0.10848,-1.62521 h -1.04841 v -2.80822 c 0,-0.0595 -0.0486,-0.10815 -0.10848,-0.10815 h -2.84097 v 1.7241 c 0,0.0595 -0.0486,0.10814 -0.10814,0.10814 h -1.6954 v 4.07128 c 0,0.0599 0.0486,0.10815 0.10848,0.10815 h 4.53595 c 0.0599,0 0.10848,-0.0483 0.10848,-0.10815 v -1.03717 h 1.04841 c 0.17925,0 0.32511,-0.14552 0.32511,-0.32477 v -1.30043 c 0,-0.17925 -0.14586,-0.32478 -0.32511,-0.32478"
       style="fill:#020000;fill-opacity:1;fill-rule:nonzero;stroke:none;stroke-width:0.330729"
       id="path6451" />
    <path
       d="m 140.34996,231.87525 c 0,2.62268 -2.12791,4.74795 -4.74894,4.74795 -2.62268,0 -4.74927,-2.12527 -4.74927,-4.74795 0,-2.62301 2.12659,-4.74893 4.74927,-4.74893 2.62103,0 4.74894,2.12592 4.74894,4.74893"
       style="fill:#ededee;fill-opacity:1;fill-rule:nonzero;stroke:none;stroke-width:0.330729"
       id="path4283-3" />
    <path
       id="path6543-6"
       d="m 135.02949,228.55988 v 1.72391 c 0,0.0599 -0.0487,0.10854 -0.10852,0.10854 h -1.69499 v 4.07106 c 0,0.0599 0.0485,0.10853 0.10801,0.10853 h 4.53667 c 0.0595,0 0.108,-0.0486 0.108,-0.10853 v -1.03664 h 0.70745 c 0.17926,0 0.32505,-0.14628 0.32505,-0.32554 v -1.29966 c 0,-0.17926 -0.14579,-0.32557 -0.32505,-0.32557 h -0.70745 v -2.80757 c 0,-0.0599 -0.0485,-0.10853 -0.108,-0.10853 z m -0.21652,0.13022 -1.50379,1.48519 h 1.50379 z m 0.61184,3.00239 h 3.2613 c 0.0599,0 0.10852,0.0492 0.10852,0.10906 v 1.29966 c 0,0.0599 -0.0487,0.10851 -0.10852,0.10851 h -3.2613 c -0.0599,0 -0.10852,-0.0487 -0.10852,-0.10851 v -1.29966 c 0,-0.0599 0.0487,-0.10906 0.10852,-0.10906 z m 0.47646,0.31472 c -0.0529,0 -0.0961,0.0427 -0.0961,0.0956 v 0.6961 c 0,0.0529 0.0651,0.0961 0.11834,0.0961 0.0529,0 0.0956,-0.0432 0.0956,-0.0961 v -0.17725 h 0.12299 c 0.22291,0 0.36742,-0.1207 0.36742,-0.30956 0,-0.18521 -0.14321,-0.30488 -0.3638,-0.30488 z m 0.87333,0 c -0.0532,0 -0.0961,0.0427 -0.0961,0.0956 v 0.6961 c 0,0.0529 0.0429,0.0961 0.0961,0.0961 h 0.22325 c 0.26557,0 0.46612,-0.19029 0.46612,-0.44495 0,-0.25268 -0.20055,-0.44286 -0.46612,-0.44286 z m 0.97875,0 c -0.0529,0 -0.0961,0.0424 -0.0961,0.0956 v 0.6961 c 0,0.0529 0.0432,0.0956 0.0961,0.0956 h 0.0222 c 0.0529,0 0.0956,-0.0427 0.0956,-0.0956 v -0.17984 h 0.23927 c 0.0529,0 0.0961,-0.0427 0.0961,-0.0956 0,-0.0529 -0.0432,-0.11576 -0.0961,-0.11576 h -0.23927 v -0.18915 h 0.33125 c 0.0529,0 0.0961,-0.0427 0.0961,-0.0956 0,-0.0529 -0.0432,-0.11576 -0.0961,-0.11576 z m -1.73426,0.21135 h 0.12506 c 0.10054,0 0.15141,0.0311 0.15141,0.0956 0,0.0236 -2e-5,0.0951 -0.15348,0.0951 h -0.12299 z m 0.87282,0 h 0.1049 c 0.14651,0 0.25322,0.0975 0.25322,0.2341 0,0.13333 -0.10563,0.22995 -0.25115,0.22995 h -0.10697 z"
       style="fill:#020000;fill-opacity:1;fill-rule:nonzero;stroke:none;stroke-width:0.330729" />
    <text
       xml:space="preserve"
       style="font-style:normal;font-weight:normal;font-size:10.5833px;line-height:1.25;font-family:sans-serif;letter-spacing:0px;word-spacing:0px;fill:#000000;fill-opacity:1;stroke:none;stroke-width:0.264583px;stroke-linecap:butt;stroke-linejoin:miter;stroke-opacity:1"
       x="159.34254"
       y="201.94263"
       id="text1695-3-10"><tspan
         id="tspan1693-4-1"
         x="159.34254"
         y="201.94263"
         style="font-style:italic;font-variant:normal;font-weight:normal;font-stretch:normal;font-size:6.35px;font-family:'Open Sans';-inkscape-font-specification:'Open Sans Italic';stroke-width:0.264583px">generates</tspan></text>
    <text
       xml:space="preserve"
       style="font-style:normal;font-weight:normal;font-size:10.5833px;line-height:1.25;font-family:sans-serif;letter-spacing:0px;word-spacing:0px;fill:#000000;fill-opacity:1;stroke:none;stroke-width:0.264583px;stroke-linecap:butt;stroke-linejoin:miter;stroke-opacity:1"
       x="144.97133"
       y="211.4297"
       id="text1695-3-10-3"><tspan
         id="tspan1693-4-1-7"
         x="144.97133"
         y="211.4297"
         style="font-style:normal;font-variant:normal;font-weight:normal;font-stretch:normal;font-size:6.35px;font-family:'Open Sans';-inkscape-font-specification:'Open Sans';stroke-width:0.264583px">navigational pages</tspan></text>
    <text
       xml:space="preserve"
       style="font-style:normal;font-weight:normal;font-size:10.5833px;line-height:1.25;font-family:sans-serif;letter-spacing:0px;word-spacing:0px;fill:#000000;fill-opacity:1;stroke:none;stroke-width:0.264583px;stroke-linecap:butt;stroke-linejoin:miter;stroke-opacity:1"
       x="156.14894"
       y="222.67635"
       id="text1695-3-10-3-7"><tspan
         id="tspan1693-4-1-7-6"
         x="156.14894"
         y="222.67635"
         style="font-style:normal;font-variant:normal;font-weight:normal;font-stretch:normal;font-size:6.35px;font-family:'Open Sans';-inkscape-font-specification:'Open Sans';stroke-width:0.264583px">HTML docs</tspan></text>
    <text
       xml:space="preserve"
       style="font-style:normal;font-weight:normal;font-size:10.5833px;line-height:1.25;font-family:sans-serif;letter-spacing:0px;word-spacing:0px;fill:#000000;fill-opacity:1;stroke:none;stroke-width:0.264583px;stroke-linecap:butt;stroke-linejoin:miter;stroke-opacity:1"
       x="158.89761"
       y="233.52428"
       id="text1695-3-10-3-3"><tspan
         id="tspan1693-4-1-7-9"
         x="158.89761"
         y="233.52428"
         style="font-style:normal;font-variant:normal;font-weight:normal;font-stretch:normal;font-size:6.35px;font-family:'Open Sans';-inkscape-font-specification:'Open Sans';stroke-width:0.264583px">PDF docs</tspan></text>
    <text
       xml:space="preserve"
       style="font-style:normal;font-weight:normal;font-size:10.5833px;line-height:1.25;font-family:sans-serif;letter-spacing:0px;word-spacing:0px;fill:#000000;fill-opacity:1;stroke:none;stroke-width:0.264583px;stroke-linecap:butt;stroke-linejoin:miter;stroke-opacity:1"
       x="190.28978"
       y="233.37854"
       id="text1695-3-10-3-3-1"><tspan
         id="tspan1693-4-1-7-9-0"
         x="190.28978"
         y="233.37854"
         style="font-style:normal;font-variant:normal;font-weight:normal;font-stretch:normal;font-size:6.35px;font-family:'Open Sans';-inkscape-font-specification:'Open Sans';stroke-width:0.264583px">[...]</tspan></text>
    <path
       style="display:inline;fill:#555753;fill-rule:evenodd;stroke:#555753;stroke-width:1.00013;stroke-linecap:butt;stroke-linejoin:miter;stroke-miterlimit:4;stroke-dasharray:none;stroke-opacity:1;marker-end:url(#Arrow1Mend-3)"
       d="M 67.125384,229.53635 128.98627,195.61278"
       id="path1251-0" />
    <path
       d="m 96.459437,215.57864 c 0,2.79752 -2.269785,5.06447 -5.065545,5.06447 -2.79753,0 -5.06589,-2.26695 -5.06589,-5.06447 0,-2.79788 2.26836,-5.06554 5.06589,-5.06554 2.79576,0 5.065545,2.26766 5.065545,5.06554"
       style="fill:#cc0000;fill-opacity:1;fill-rule:nonzero;stroke:none;stroke-width:0.352778"
       id="path626" />
    <path
       d="m 91.286792,217.73954 c -0.21837,0 -0.39582,0.1771 -0.39582,0.39582 0,0.21837 0.17745,0.39546 0.39582,0.39546 0.21837,0 0.39581,-0.17709 0.39581,-0.39546 0,-0.21872 -0.17744,-0.39582 -0.39581,-0.39582 m 1.38853,-3.4036 c 0,-0.61807 -0.47413,-1.10949 -1.23613,-1.10949 -0.62654,0 -1.02341,0.38559 -1.54094,0.79622 -0.0727,0.0575 -0.22013,0.11536 -0.36794,-0.0459 -0.16158,-0.17639 -0.0843,-0.3496 -0.0166,-0.41451 0.58384,-0.55704 1.03646,-0.93698 1.94239,-0.93698 1.143,0 1.89689,0.71155 1.89689,1.68487 0,1.06715 -0.79622,1.59208 -1.76142,1.72755 l -0.0843,0.74189 c 0,0 -0.0261,0.17286 -0.22049,0.17286 -0.17921,0 -0.21166,-0.17286 -0.21166,-0.17286 -0.0286,-0.30727 -0.0568,-0.44132 -0.085,-0.74859 -0.013,-0.14041 -0.0268,-0.28117 -0.0388,-0.42192 -7.1e-4,-0.007 -0.001,-0.0138 -3.4e-4,-0.0208 0.003,-0.0198 0.018,-0.0363 0.036,-0.0445 0.0628,-0.0279 0.13476,-0.019 0.20144,-0.0194 0.37887,-7.2e-4 0.80326,-0.12136 1.10066,-0.36019 0.25364,-0.20426 0.38629,-0.50447 0.38629,-0.82832"
       style="fill:#ffffff;fill-opacity:1;fill-rule:nonzero;stroke:none;stroke-width:0.352778"
       id="path2404" />
    <rect
       y="107.02913"
       x="211.72928"
       height="21.166668"
       width="87.3125"
       id="rect11478-6-9-11"
       style="fill:#75507b;fill-opacity:1;stroke-width:0.429897" />
    <rect
       y="107.02913"
       x="224.95844"
       height="21.166668"
       width="74.083336"
       id="rect866-7-7-8"
       style="fill:#ffffff;fill-opacity:0.00392157;stroke-width:0.457252" />
    <rect
       y="107.02913"
       x="211.72928"
       height="21.166668"
       width="13.229167"
       id="rect59-5-3-6"
       style="fill:#ffffff;fill-opacity:0.117647;stroke-width:0.334674" />
    <text
       id="text57-6-3-3"
       y="115.66254"
       x="239.95906"
       style="font-style:normal;font-weight:normal;font-size:10.5833px;line-height:1.25;font-family:sans-serif;letter-spacing:0px;word-spacing:0px;fill:#ededed;fill-opacity:1;stroke:none;stroke-width:0.264583px;stroke-linecap:butt;stroke-linejoin:miter;stroke-opacity:1"
       xml:space="preserve"><tspan
         style="font-style:normal;font-variant:normal;font-weight:normal;font-stretch:normal;font-size:8.46667px;font-family:'Open Sans';-inkscape-font-specification:'Open Sans';fill:#ededed;stroke-width:0.264583px"
         y="115.66254"
         x="239.95906"
         id="tspan55-2-1-4">publication</tspan><tspan
         id="tspan953-9-7"
         y="128.89166"
         x="239.95906" /></text>
    <text
       id="text57-6-2-4-7"
       y="123.96109"
       x="229.785"
       style="font-style:normal;font-weight:normal;font-size:10.5833px;line-height:1.25;font-family:sans-serif;letter-spacing:0px;word-spacing:0px;fill:#ededed;fill-opacity:1;stroke:none;stroke-width:0.264583px;stroke-linecap:butt;stroke-linejoin:miter;stroke-opacity:1"
       xml:space="preserve"><tspan
         id="tspan953-0-7-0"
         style="font-style:normal;font-variant:normal;font-weight:normal;font-stretch:normal;font-size:8.46667px;font-family:'Open Sans';-inkscape-font-specification:'Open Sans';fill:#ededed;stroke-width:0.264583px"
         y="123.96109"
         x="229.785">server (external)</tspan></text>
    <path
       id="path4015"
       style="fill:#ededee;fill-opacity:1;fill-rule:nonzero;stroke:none;stroke-width:0.330729"
       d="m 223.09298,117.61296 c 0,2.62268 -2.12792,4.74795 -4.74894,4.74795 -2.62269,0 -4.74928,-2.12527 -4.74928,-4.74795 0,-2.62301 2.12659,-4.74894 4.74928,-4.74894 2.62102,0 4.74894,2.12593 4.74894,4.74894" />
    <path
       id="path5605"
       style="fill:#020000;fill-opacity:1;fill-rule:nonzero;stroke:none;stroke-width:0.330729"
       d="m 222.10545,116.87583 c -0.009,-0.0132 -0.0245,-0.0208 -0.0404,-0.0208 h -0.081 c -0.0215,0 -0.0403,0.0136 -0.047,0.0337 l -0.4617,1.3679 -0.44251,-1.3722 c -0.007,-0.0205 -0.0258,-0.0344 -0.0473,-0.0344 h -0.0602 c -0.0215,0 -0.0407,0.0139 -0.0473,0.0344 l -0.44021,1.36955 -0.46169,-1.36525 c -0.007,-0.0202 -0.0258,-0.0337 -0.047,-0.0337 h -0.0857 c -0.0159,0 -0.0311,0.008 -0.0403,0.0208 -0.009,0.0129 -0.0119,0.0298 -0.007,0.045 l 0.56058,1.63281 c 0.007,0.0202 0.0258,0.0334 0.047,0.0334 h 0.0648 c 0.0215,0 0.0403,-0.0136 0.047,-0.0341 l 0.43722,-1.34474 0.43921,1.34474 c 0.007,0.0205 0.0255,0.0341 0.047,0.0341 h 0.0652 c 0.0212,0 0.04,-0.0132 0.047,-0.0334 l 0.56059,-1.63281 c 0.005,-0.0152 0.003,-0.0321 -0.007,-0.045 m -2.68222,-0.0208 h -0.081 c -0.0215,0 -0.0404,0.0136 -0.0473,0.0337 l -0.46136,1.3679 -0.44252,-1.3722 c -0.007,-0.0205 -0.0258,-0.0344 -0.0473,-0.0344 h -0.0605 c -0.0215,0 -0.0407,0.0139 -0.047,0.0344 l -0.44053,1.36955 -0.46137,-1.36525 c -0.007,-0.0202 -0.0258,-0.0337 -0.047,-0.0337 h -0.0857 c -0.0159,0 -0.0311,0.008 -0.0403,0.0208 -0.01,0.0129 -0.0119,0.0298 -0.007,0.045 l 0.56058,1.63281 c 0.007,0.0202 0.0258,0.0334 0.047,0.0334 h 0.0645 c 0.0215,0 0.0407,-0.0136 0.0473,-0.0341 l 0.43723,-1.34474 0.43887,1.34474 c 0.007,0.0205 0.0258,0.0341 0.0473,0.0341 h 0.0648 c 0.0212,0 0.04,-0.0132 0.047,-0.0334 l 0.56092,-1.63281 c 0.005,-0.0152 0.003,-0.0321 -0.007,-0.045 -0.01,-0.0132 -0.0245,-0.0208 -0.0403,-0.0208 m -2.60151,0.0208 c 0.01,0.0129 0.0119,0.0298 0.007,0.045 l -0.56059,1.63281 c -0.007,0.0202 -0.0258,0.0334 -0.047,0.0334 h -0.0648 c -0.0215,0 -0.0407,-0.0136 -0.0473,-0.0341 l -0.43888,-1.34474 -0.43722,1.34474 c -0.007,0.0205 -0.0258,0.0341 -0.0473,0.0341 h -0.0648 c -0.0212,0 -0.04,-0.0132 -0.047,-0.0334 l -0.56059,-1.63281 c -0.005,-0.0152 -0.003,-0.0321 0.007,-0.045 0.01,-0.0132 0.0245,-0.0208 0.0407,-0.0208 h 0.0853 c 0.0215,0 0.0404,0.0136 0.047,0.0337 l 0.4617,1.36525 0.4402,-1.36955 c 0.007,-0.0205 0.0258,-0.0344 0.0473,-0.0344 h 0.0605 c 0.0215,0 0.0404,0.0139 0.047,0.0344 l 0.44284,1.3722 0.46137,-1.3679 c 0.007,-0.0202 0.0258,-0.0337 0.047,-0.0337 h 0.081 c 0.0162,0 0.0311,0.008 0.0403,0.0208" />
    <rect
       y="182.73911"
       x="239.58522"
       height="21.166668"
       width="87.3125"
       id="rect11478-6-9-11-9"
       style="fill:#75507b;fill-opacity:1;stroke-width:0.429897" />
    <rect
       y="182.73911"
       x="252.81438"
       height="21.166668"
       width="74.083336"
       id="rect866-7-7-8-3"
       style="fill:#ffffff;fill-opacity:0.00392157;stroke-width:0.457252" />
    <rect
       y="182.73911"
       x="239.58522"
       height="21.166668"
       width="13.229167"
       id="rect59-5-3-6-0"
       style="fill:#ffffff;fill-opacity:0.117647;stroke-width:0.334674" />
    <text
       id="text57-6-3-3-2"
       y="191.37251"
       x="267.815"
       style="font-style:normal;font-weight:normal;font-size:10.5833px;line-height:1.25;font-family:sans-serif;letter-spacing:0px;word-spacing:0px;fill:#ededed;fill-opacity:1;stroke:none;stroke-width:0.264583px;stroke-linecap:butt;stroke-linejoin:miter;stroke-opacity:1"
       xml:space="preserve"><tspan
         style="font-style:normal;font-variant:normal;font-weight:normal;font-stretch:normal;font-size:8.46667px;font-family:'Open Sans';-inkscape-font-specification:'Open Sans';fill:#ededed;stroke-width:0.264583px"
         y="191.37251"
         x="267.815"
         id="tspan55-2-1-4-7">publication</tspan><tspan
         id="tspan953-9-7-9"
         y="204.60164"
         x="267.815" /></text>
    <text
       id="text57-6-2-4-7-9"
       y="199.67107"
       x="258.56491"
       style="font-style:normal;font-weight:normal;font-size:10.5833px;line-height:1.25;font-family:sans-serif;letter-spacing:0px;word-spacing:0px;fill:#ededed;fill-opacity:1;stroke:none;stroke-width:0.264583px;stroke-linecap:butt;stroke-linejoin:miter;stroke-opacity:1"
       xml:space="preserve"><tspan
         id="tspan953-0-7-0-5"
         style="font-style:normal;font-variant:normal;font-weight:normal;font-stretch:normal;font-size:8.46667px;font-family:'Open Sans';-inkscape-font-specification:'Open Sans';fill:#ededed;stroke-width:0.264583px"
         y="199.67107"
         x="258.56491">server (internal)</tspan></text>
    <path
       id="path358"
       style="fill:#ededee;fill-opacity:1;fill-rule:nonzero;stroke:none;stroke-width:0.352778"
       d="m 251.26552,193.32293 c 0,2.79753 -2.26977,5.06448 -5.06554,5.06448 -2.79753,0 -5.06589,-2.26695 -5.06589,-5.06448 0,-2.79788 2.26836,-5.06554 5.06589,-5.06554 2.79577,0 5.06554,2.26766 5.06554,5.06554" />
    <path
       id="path3088"
       style="fill:#020000;fill-opacity:1;fill-rule:nonzero;stroke:none;stroke-width:0.352778"
       d="m 244.11912,196.49098 c 0,0.0374 0.0307,0.0681 0.0681,0.0681 h 4.02519 c 0.0374,0 0.0681,-0.0307 0.0681,-0.0681 v -0.62548 h -4.16137 z m 0.57785,-1.20333 c 0,0.0639 0.0519,0.11572 0.11571,0.11572 h 1.61855 c 0.0638,0 0.11536,-0.0519 0.11536,-0.11572 0,-0.0639 -0.0515,-0.11571 -0.11536,-0.11571 h -1.61855 c -0.0639,0 -0.11571,0.0519 -0.11571,0.11571 m 2.30929,-0.26035 c 0,0.22296 0.18168,0.40464 0.40463,0.40464 0.22296,0 0.40464,-0.18168 0.40464,-0.40464 0,-0.22295 -0.18168,-0.40428 -0.40464,-0.40428 -0.22295,0 -0.40463,0.18133 -0.40463,0.40428 m -3.11821,-0.54715 h 4.62386 v 1.26964 0.74119 c 0,0.1651 -0.13441,0.29951 -0.29951,0.29951 h -4.02519 c -0.16475,0 -0.29916,-0.13441 -0.29916,-0.29951 v -0.74119 z m 3.52284,0.72072 c 0.0956,0 0.17357,-0.078 0.17357,-0.17357 0,-0.0956 -0.078,-0.17321 -0.17357,-0.17321 -0.0956,0 -0.17356,0.0776 -0.17356,0.17321 0,0.0956 0.078,0.17357 0.17356,0.17357 m -2.71392,-1.53176 c 0,0.0642 0.0519,0.11571 0.11571,0.11571 h 1.61855 c 0.0638,0 0.11536,-0.0515 0.11536,-0.11571 0,-0.0639 -0.0515,-0.11536 -0.11536,-0.11536 h -1.61855 c -0.0639,0 -0.11571,0.0515 -0.11571,0.11536 m 2.30929,-0.0868 c 0,0.22331 0.18168,0.40464 0.40463,0.40464 0.22296,0 0.40464,-0.18133 0.40464,-0.40464 0,-0.22296 -0.18168,-0.40464 -0.40464,-0.40464 -0.22295,0 -0.40463,0.18168 -0.40463,0.40464 m -3.11821,-0.60713 h 4.62386 v 3.4e-4 1.27353 h -4.62386 v -1.27352 z m 3.52284,0.7807 c 0.0956,0 0.17357,-0.078 0.17357,-0.17357 0,-0.0956 -0.078,-0.17321 -0.17357,-0.17321 -0.0956,0 -0.17356,0.0776 -0.17356,0.17321 0,0.0956 0.078,0.17357 0.17356,0.17357 m 0,-1.44498 c 0.0956,0 0.17357,-0.078 0.17357,-0.17357 0,-0.0956 -0.078,-0.17356 -0.17357,-0.17356 -0.0956,0 -0.17356,0.078 -0.17356,0.17356 0,0.0956 0.078,0.17357 0.17356,0.17357 m -2.71392,-0.0289 c 0,0.0639 0.0519,0.11571 0.11571,0.11571 h 1.61855 c 0.0638,0 0.11536,-0.0519 0.11536,-0.11571 0,-0.0638 -0.0515,-0.11536 -0.11536,-0.11536 h -1.61855 c -0.0639,0 -0.11571,0.0515 -0.11571,0.11536 m 2.30929,-0.14464 c 0,0.22331 0.18168,0.40464 0.40463,0.40464 0.22296,0 0.40464,-0.18133 0.40464,-0.40464 0,-0.22296 -0.18168,-0.40464 -0.40464,-0.40464 -0.22295,0 -0.40463,0.18168 -0.40463,0.40464 m -3.11821,-0.66675 h 4.62386 v 1.27353 h -4.62386 z m 3.92748,-0.77823 c 0,-0.22295 -0.18168,-0.40428 -0.40464,-0.40428 -0.22295,0 -0.40463,0.18133 -0.40463,0.40428 0,0.22331 0.18168,0.40464 0.40463,0.40464 0.22296,0 0.40464,-0.18133 0.40464,-0.40464 m -1.26894,0.2025 c 0,-0.0639 -0.0515,-0.11536 -0.11536,-0.11536 h -1.61855 c -0.0639,0 -0.11571,0.0515 -0.11571,0.11536 0,0.0639 0.0519,0.11571 0.11571,0.11571 h 1.61855 c 0.0638,0 0.11536,-0.0519 0.11536,-0.11571 m 1.96532,-0.74084 v 1.08515 h -4.62386 v -1.08515 c 0,-0.1651 0.13441,-0.29951 0.29916,-0.29951 h 4.02519 c 0.1651,0 0.29951,0.13441 0.29951,0.29951 m -0.92745,0.53834 c 0,0.0956 -0.078,0.17357 -0.17357,0.17357 -0.0956,0 -0.17356,-0.078 -0.17356,-0.17357 0,-0.0956 0.078,-0.17321 0.17356,-0.17321 0.0956,0 0.17357,0.0776 0.17357,0.17321" />
    <path
       style="display:inline;fill:#555753;fill-rule:evenodd;stroke:#555753;stroke-width:1.00013;stroke-linecap:butt;stroke-linejoin:miter;stroke-miterlimit:4;stroke-dasharray:none;stroke-opacity:1;marker-end:url(#Arrow1Mend-3-35)"
       d="M 203.06962,195.61275 248.59599,128.1958"
       id="path1251-0-6" />
    <path
       style="display:inline;fill:#555753;fill-rule:evenodd;stroke:#555753;stroke-width:1.00013;stroke-linecap:butt;stroke-linejoin:miter;stroke-miterlimit:4;stroke-dasharray:none;stroke-opacity:1;marker-end:url(#Arrow1Mend-3-5)"
       d="m 203.0696,219.94447 37.04478,-16.92585"
       id="path1251-0-3" />
    <path
       d="m 231.10629,160.95872 c 0,2.79752 -2.26977,5.06447 -5.06553,5.06447 -2.79753,0 -5.06589,-2.26695 -5.06589,-5.06447 0,-2.79788 2.26836,-5.06554 5.06589,-5.06554 2.79576,0 5.06553,2.26766 5.06553,5.06554"
       style="fill:#cc0000;fill-opacity:1;fill-rule:nonzero;stroke:none;stroke-width:0.352778"
       id="path622" />
    <path
       d="m 225.03926,163.25295 -1.98438,-1.97768 c -0.13793,-0.13759 -0.13829,-0.36125 -7e-4,-0.49919 0.13758,-0.13793 0.36089,-0.13829 0.49882,-7.1e-4 l 1.48555,1.48062 3.48933,-3.48968 c 0.13758,-0.13759 0.36089,-0.13759 0.49882,0 0.13759,0.13793 0.13759,0.36124 0,0.49883 z"
       style="fill:#ffffff;fill-opacity:1;fill-rule:nonzero;stroke:none;stroke-width:0.352778"
       id="path2400" />
    <text
       xml:space="preserve"
       style="font-style:normal;font-weight:normal;font-size:10.5833px;line-height:1.25;font-family:sans-serif;letter-spacing:0px;word-spacing:0px;fill:#000000;fill-opacity:1;stroke:none;stroke-width:0.264583px;stroke-linecap:butt;stroke-linejoin:miter;stroke-opacity:1"
       x="235.44302"
       y="162.62474"
       id="text1695-3-1-0"><tspan
         id="tspan1693-4-3-2"
         x="235.44302"
         y="162.62474"
         style="font-style:italic;font-variant:normal;font-weight:normal;font-stretch:normal;font-size:6.35px;font-family:'Open Sans';-inkscape-font-specification:'Open Sans Italic';stroke-width:0.264583px">5. syncs final documents</tspan></text>
    <path
       d="m 227.58188,206.2068 c 0,2.79752 -2.26977,5.06447 -5.06553,5.06447 -2.79753,0 -5.06589,-2.26695 -5.06589,-5.06447 0,-2.79788 2.26836,-5.06554 5.06589,-5.06554 2.79576,0 5.06553,2.26766 5.06553,5.06554"
       style="fill:#cc0000;fill-opacity:1;fill-rule:nonzero;stroke:none;stroke-width:0.352778"
       id="path622-7" />
    <path
       d="m 221.51485,208.50103 -1.98438,-1.97768 c -0.13793,-0.13759 -0.13829,-0.36125 -7e-4,-0.49919 0.13758,-0.13793 0.36089,-0.13829 0.49882,-7.1e-4 l 1.48555,1.48062 3.48933,-3.48968 c 0.13758,-0.13759 0.36089,-0.13759 0.49882,0 0.13759,0.13793 0.13759,0.36124 0,0.49883 z"
       style="fill:#ffffff;fill-opacity:1;fill-rule:nonzero;stroke:none;stroke-width:0.352778"
       id="path2400-4" />
    <text
       xml:space="preserve"
       style="font-style:normal;font-weight:normal;font-size:10.5833px;line-height:1.25;font-family:sans-serif;letter-spacing:0px;word-spacing:0px;fill:#000000;fill-opacity:1;stroke:none;stroke-width:0.264583px;stroke-linecap:butt;stroke-linejoin:miter;stroke-opacity:1"
       x="222.16585"
       y="218.97594"
       id="text1695-3-1-0-7"><tspan
         id="tspan1693-4-3-2-3"
         x="222.16585"
         y="218.97594"
         style="font-style:italic;font-variant:normal;font-weight:normal;font-stretch:normal;font-size:6.35px;font-family:'Open Sans';-inkscape-font-specification:'Open Sans Italic';stroke-width:0.264583px">5. syncs final documents</tspan></text>
    <path
       style="fill:none;fill-rule:evenodd;stroke:#000000;stroke-width:0.264583px;stroke-linecap:butt;stroke-linejoin:miter;stroke-opacity:1"
       d="m 47.826283,239.59051 v 1e-5"
       id="path5680" />
  </g>
</svg>
